<svg xmlns="http://www.w3.org/2000/svg" xmlns:xlink="http://www.w3.org/1999/xlink" width="360" height="640" viewBox="0 0 360 640">
  <defs>
    <filter id="more" x="289" y="546" width="73" height="73" filterUnits="userSpaceOnUse">
      <feOffset dy="6" input="SourceAlpha"/>
      <feGaussianBlur stdDeviation="3" result="blur"/>
      <feFlood flood-opacity="0.161"/>
      <feComposite operator="in" in2="blur"/>
      <feComposite in="SourceGraphic"/>
    </filter>
    <clipPath id="clip-Dashbord_-_empty_kindness_acts">
      <rect width="360" height="640"/>
    </clipPath>
  </defs>
  <g id="Dashbord_-_empty_kindness_acts" data-name="Dashbord - empty kindness acts" clip-path="url(#clip-Dashbord_-_empty_kindness_acts)">
    <rect width="360" height="640" fill="#fff"/>
    <rect id="Rectangle_1565" data-name="Rectangle 1565" width="361" height="163" fill="#3596b2"/>
    <g id="Group_433" data-name="Group 433" transform="translate(0 -1)">
      <g id="not_filled_logo" transform="translate(-51 -477)">
        <g id="Ellipse_114" data-name="Ellipse 114" transform="translate(83 522)" fill="#3596b2" stroke="#ebce12" stroke-width="2">
          <ellipse cx="11.5" cy="2.5" rx="11.5" ry="2.5" stroke="none"/>
          <ellipse cx="11.5" cy="2.5" rx="10.5" ry="1.5" fill="none"/>
        </g>
        <path id="Rectangle_1555" data-name="Rectangle 1555" d="M0,0H23a0,0,0,0,1,0,0V19a4,4,0,0,1-4,4H4a4,4,0,0,1-4-4V0A0,0,0,0,1,0,0Z" transform="translate(83 525)" fill="#ebce12"/>
        <path id="Path_786" data-name="Path 786" d="M21.226,17.546a2.224,2.224,0,0,1,4.449,0,.639.639,0,0,1-1.278,0,.946.946,0,0,0-1.893,0,.639.639,0,0,1-1.278,0Zm-7.086-.007a2.224,2.224,0,0,1,4.449,0,.639.639,0,1,1-1.278,0,.946.946,0,0,0-1.893,0,.639.639,0,1,1-1.278,0Zm-.283,5.713a.767.767,0,1,1,1.416-.588,4.757,4.757,0,0,0,4.479,2.813A4.8,4.8,0,0,0,24.2,22.662a.767.767,0,1,1,1.407.609,6.328,6.328,0,0,1-5.861,3.739A6.284,6.284,0,0,1,13.856,23.251Z" transform="translate(74.926 515.334)" fill="#3596b2"/>
      </g>
      <text id="Hello_Jane_so_nice_to_have_you_back_" data-name="Hello Jane, 
so nice to have you back !" transform="translate(67 45)" fill="rgba(255,255,255,0.7)" font-size="16" font-family="Apercu-Bold, Apercu" font-weight="700" letter-spacing="0em"><tspan x="0" y="15">Hello Jane</tspan><tspan y="15" font-family="Apercu-Medium, Apercu" font-weight="500">, </tspan><tspan font-family="Apercu-Medium, Apercu" font-weight="500"><tspan x="0" y="33">so nice to have you back !</tspan></tspan></text>
    </g>
    <path id="Rectangle_1566" data-name="Rectangle 1566" d="M0,0H321a40,40,0,0,1,40,40V523a0,0,0,0,1,0,0H0a0,0,0,0,1,0,0V0A0,0,0,0,1,0,0Z" transform="translate(0 117)" fill="#fff"/>
    <path id="Rectangle_1568" data-name="Rectangle 1568" d="M0,0H286a75,75,0,0,1,75,75V523a0,0,0,0,1,0,0H0a0,0,0,0,1,0,0V0A0,0,0,0,1,0,0Z" transform="translate(0 117)" fill="#fff"/>
    <g id="Status_Bar" data-name="Status Bar">
      <rect id="Frame" width="360" height="44" fill="#fff" opacity="0.001"/>
      <g id="Status_Bar-2" data-name="Status Bar" transform="translate(21 13)">
        <g id="Battery" transform="translate(300.672 3.333)">
          <g id="Border" fill="none" stroke="#000" stroke-miterlimit="10" stroke-width="1" opacity="0.35">
            <rect width="22" height="11.333" rx="2.667" stroke="none"/>
            <rect x="0.5" y="0.5" width="21" height="10.333" rx="2.167" fill="none"/>
          </g>
          <path id="Cap" d="M0,0V4A2.17,2.17,0,0,0,1.328,2,2.17,2.17,0,0,0,0,0" transform="translate(23 3.667)" opacity="0.4"/>
          <rect id="Capacity" width="18" height="7.333" rx="1.333" transform="translate(2 2)"/>
        </g>
        <path id="Wifi" d="M7.667,11a.314.314,0,0,1-.222-.093L5.439,8.885a.31.31,0,0,1-.094-.231.316.316,0,0,1,.1-.227,3.437,3.437,0,0,1,4.437,0,.315.315,0,0,1,.009.458L7.889,10.907A.314.314,0,0,1,7.667,11ZM11.19,7.451a.313.313,0,0,1-.215-.086,4.928,4.928,0,0,0-6.612,0,.313.313,0,0,1-.215.086.308.308,0,0,1-.22-.091L2.768,6.189a.322.322,0,0,1,0-.46,7.192,7.192,0,0,1,9.791,0,.323.323,0,0,1,.1.23.319.319,0,0,1-.095.23L11.409,7.36A.309.309,0,0,1,11.19,7.451Zm2.669-2.693a.3.3,0,0,1-.215-.088,8.68,8.68,0,0,0-11.955,0,.307.307,0,0,1-.435,0L.094,3.5a.323.323,0,0,1,0-.457,10.948,10.948,0,0,1,15.141,0,.323.323,0,0,1,0,.457l-1.161,1.17A.306.306,0,0,1,13.859,4.758Z" transform="translate(280.339 3.331)"/>
        <path id="Cellular_Connection" data-name="Cellular Connection" d="M16,10.667H15a1,1,0,0,1-1-1V1a1,1,0,0,1,1-1h1a1,1,0,0,1,1,1V9.667A1,1,0,0,1,16,10.667Zm-4.667,0h-1a1,1,0,0,1-1-1V3.334a1,1,0,0,1,1-1h1a1,1,0,0,1,1,1V9.667A1,1,0,0,1,11.334,10.667Zm-4.667,0h-1a1,1,0,0,1-1-1v-4a1,1,0,0,1,1-1h1a1,1,0,0,1,1,1v4A1,1,0,0,1,6.666,10.667ZM2,10.667H1a1,1,0,0,1-1-1v-2a1,1,0,0,1,1-1H2a1,1,0,0,1,1,1v2A1,1,0,0,1,2,10.667Z" transform="translate(258.339 3.667)"/>
        <g id="Time_Style" data-name="Time Style">
          <text id="Time" font-size="15" font-family="SFProText-Semibold, SF Pro Text" font-weight="600" letter-spacing="-0.02em"><tspan x="11.337" y="14">9:41</tspan></text>
        </g>
      </g>
    </g>
    <g id="Rectangle_1567" data-name="Rectangle 1567" transform="translate(165 151)" fill="#3596b2" stroke="#3596b2" stroke-width="1">
      <rect width="36" height="44" rx="4" stroke="none"/>
      <rect x="0.5" y="0.5" width="35" height="43" rx="3.5" fill="none"/>
    </g>
    <text id="March_2020" data-name="March, 2020" transform="translate(9 148)" fill="#54595d" font-size="11" font-family="Apercu-Bold, Apercu" font-weight="700"><tspan x="0" y="0">March, 2020</tspan></text>
    <g id="Group_302" data-name="Group 302" transform="translate(9 155)">
      <text id="SUN" transform="translate(0 9)" fill="rgba(84,89,93,0.5)" font-size="10" font-family="Apercu-Bold, Apercu" font-weight="700"><tspan x="0" y="0">SUN</tspan></text>
      <text id="MON" transform="translate(54 9)" fill="rgba(84,89,93,0.5)" font-size="10" font-family="Apercu-Bold, Apercu" font-weight="700"><tspan x="0" y="0">MON</tspan></text>
      <text id="TUE" transform="translate(111 9)" fill="rgba(84,89,93,0.5)" font-size="10" font-family="Apercu-Bold, Apercu" font-weight="700"><tspan x="0" y="0">TUE</tspan></text>
      <text id="WED" transform="translate(164 9)" fill="rgba(255,255,255,0.5)" font-size="10" font-family="Apercu-Bold, Apercu" font-weight="700"><tspan x="0" y="0">WED</tspan></text>
      <text id="THU" transform="translate(220 9)" fill="rgba(84,89,93,0.5)" font-size="10" font-family="Apercu-Bold, Apercu" font-weight="700"><tspan x="0" y="0">THU</tspan></text>
      <text id="FRI" transform="translate(273 9)" fill="rgba(84,89,93,0.5)" font-size="10" font-family="Apercu-Bold, Apercu" font-weight="700"><tspan x="0" y="0">FRI</tspan></text>
      <text id="SAT" transform="translate(327 9)" fill="rgba(84,89,93,0.5)" font-size="10" font-family="Apercu-Bold, Apercu" font-weight="700"><tspan x="0" y="0">SAT</tspan></text>
    </g>
    <g id="Group_301" data-name="Group 301" transform="translate(10 170)">
      <text id="_15" data-name="15" transform="translate(0 15)" font-size="16" font-family="Apercu-Bold, Apercu" font-weight="700"><tspan x="0" y="0">15</tspan></text>
      <text id="_16" data-name="16" transform="translate(58 15)" font-size="16" font-family="Apercu-Bold, Apercu" font-weight="700"><tspan x="0" y="0">16</tspan></text>
      <text id="_17" data-name="17" transform="translate(111 15)" font-size="16" font-family="Apercu-Bold, Apercu" font-weight="700"><tspan x="0" y="0">17</tspan></text>
      <text id="_18" data-name="18" transform="translate(165 15)" fill="#fff" font-size="16" font-family="Apercu-Bold, Apercu" font-weight="700"><tspan x="0" y="0">18</tspan></text>
      <text id="_19" data-name="19" transform="translate(217 15)" font-size="16" font-family="Apercu-Bold, Apercu" font-weight="700"><tspan x="0" y="0">19</tspan></text>
      <text id="_20" data-name="20" transform="translate(271 15)" font-size="16" font-family="Apercu-Bold, Apercu" font-weight="700"><tspan x="0" y="0">20</tspan></text>
      <text id="_21" data-name="21" transform="translate(324 15)" font-size="16" font-family="Apercu-Bold, Apercu" font-weight="700"><tspan x="0" y="0">21</tspan></text>
    </g>
    <text id="No_kind_action_yet_today." data-name="No kind action yet today." transform="translate(65 467)" font-size="20" font-family="Apercu-Bold, Apercu" font-weight="700"><tspan x="0" y="0">No kind action yet today.</tspan></text>
    <text id="Click_the_button_to_log_all_the_kind_actions_that_you_already_did_today_:_" data-name="Click the + button to log all the kind actions that you already did today :)" transform="translate(10 482)" fill="#54595d" font-size="14" font-family="Apercu-Regular, Apercu" letter-spacing="0em"><tspan x="2.484" y="13">Click the + button to log all the kind actions that you </tspan><tspan x="108.798" y="31">already did today :)</tspan></text>
    <g id="undraw_blooming_jtv6" transform="translate(51 206)">
      <ellipse id="Ellipse_129" data-name="Ellipse 129" cx="123.5" cy="32" rx="123.5" ry="32" transform="translate(0 161)" fill="#edeff0"/>
      <circle id="Ellipse_130" data-name="Ellipse 130" cx="21.108" cy="21.108" r="21.108" transform="translate(149.865 38.672)" fill="#ebce12"/>
      <circle id="Ellipse_131" data-name="Ellipse 131" cx="21.108" cy="21.108" r="21.108" transform="translate(113.987 88.349)" fill="#ebce12"/>
      <ellipse id="Ellipse_132" data-name="Ellipse 132" cx="124" cy="32" rx="124" ry="32" transform="translate(11 153)" fill="none" stroke="#54595d" stroke-miterlimit="10" stroke-width="2"/>
      <circle id="Ellipse_133" data-name="Ellipse 133" cx="27.253" cy="27.253" r="27.253" transform="translate(15.802 120.915)" fill="#54595d"/>
      <rect id="Rectangle_1569" data-name="Rectangle 1569" width="8.28" height="14.834" transform="translate(30.636 169.557)" fill="#54595d"/>
      <rect id="Rectangle_1570" data-name="Rectangle 1570" width="8.28" height="14.834" transform="translate(47.195 169.557)" fill="#54595d"/>
      <ellipse id="Ellipse_134" data-name="Ellipse 134" cx="6.9" cy="2.587" rx="6.9" ry="2.587" transform="translate(30.636 181.977)" fill="#54595d"/>
      <ellipse id="Ellipse_135" data-name="Ellipse 135" cx="6.9" cy="2.587" rx="6.9" ry="2.587" transform="translate(47.195 181.632)" fill="#54595d"/>
      <circle id="Ellipse_136" data-name="Ellipse 136" cx="9.314" cy="9.314" r="9.314" transform="translate(34.43 131.955)" fill="#fff"/>
      <circle id="Ellipse_137" data-name="Ellipse 137" cx="3.105" cy="3.105" r="3.105" transform="translate(40.64 138.164)" fill="#54595d"/>
      <path id="Path_800" data-name="Path 800" d="M271.907,437.278c-2.2-9.855,4.834-19.814,15.712-22.242s21.48,3.591,23.681,13.446-5.009,13.49-15.887,15.919S274.107,447.133,271.907,437.278Z" transform="translate(-255.289 -314.454)" fill="#ebce12"/>
      <ellipse id="Ellipse_138" data-name="Ellipse 138" cx="13.627" cy="4.278" rx="13.627" ry="4.278" transform="translate(52.722 140.229) rotate(-23.171)" fill="#54595d"/>
      <ellipse id="Ellipse_139" data-name="Ellipse 139" cx="13.627" cy="4.278" rx="13.627" ry="4.278" transform="translate(1.665 158.512) rotate(-23.171)" fill="#54595d"/>
      <path id="Path_801" data-name="Path 801" d="M339.628,573.418c0,2.667-6.868,7.935-14.489,7.935s-14.834-4.922-14.834-7.59,7.213-2.07,14.834-2.07S339.628,570.751,339.628,573.418Z" transform="translate(-280.704 -417.315)" fill="#fff"/>
      <circle id="Ellipse_140" data-name="Ellipse 140" cx="21.108" cy="21.108" r="21.108" transform="translate(73.624 128.022)" fill="#ebce12"/>
      <line id="Line_10" data-name="Line 10" y1="38.289" transform="translate(94.714 149.013)" fill="#3f3d56" stroke="#54595d" stroke-miterlimit="10" stroke-width="2"/>
      <circle id="Ellipse_141" data-name="Ellipse 141" cx="5.415" cy="5.415" r="5.415" transform="translate(89.299 143.599)" fill="#54595d"/>
      <path id="Path_802" data-name="Path 802" d="M467.472,596.64s-.773-16.637-16.63-14.7" transform="translate(-372.758 -424.028)" fill="#54595d"/>
      <line id="Line_11" data-name="Line 11" y1="127.713" transform="translate(170.986 59.857)" fill="#3f3d56" stroke="#54595d" stroke-miterlimit="10" stroke-width="2"/>
      <circle id="Ellipse_142" data-name="Ellipse 142" cx="5.415" cy="5.415" r="5.415" transform="translate(165.571 54.382)" fill="#54595d"/>
      <circle id="Ellipse_143" data-name="Ellipse 143" cx="5.415" cy="5.415" r="5.415" transform="translate(148.941 146.783)" fill="#54595d"/>
      <path id="Path_803" data-name="Path 803" d="M688.565,349.794s-.774-16.637-16.63-14.7" transform="translate(-517.579 -262.339)" fill="#54595d"/>
      <path id="Path_804" data-name="Path 804" d="M688.565,486.506s-.774-16.637-16.63-14.7" transform="translate(-517.579 -351.888)" fill="#54595d"/>
      <path id="Path_805" data-name="Path 805" d="M688.565,599.565s3.481-32.337-16.63-33.884" transform="translate(-517.579 -413.482)" fill="none" stroke="#54595d" stroke-miterlimit="10" stroke-width="2"/>
      <circle id="Ellipse_144" data-name="Ellipse 144" cx="5.415" cy="5.415" r="5.415" transform="translate(182.204 146.783)" fill="#54595d"/>
      <path id="Path_806" data-name="Path 806" d="M719.711,599.565s-3.481-32.337,16.63-33.884" transform="translate(-548.723 -413.482)" fill="none" stroke="#54595d" stroke-miterlimit="10" stroke-width="2"/>
      <circle id="Ellipse_145" data-name="Ellipse 145" cx="5.415" cy="5.415" r="5.415" transform="translate(182.534 95.993)" fill="#54595d"/>
      <path id="Path_807" data-name="Path 807" d="M720.667,450.612S717.186,420,737.3,418.452" transform="translate(-549.349 -317.045)" fill="none" stroke="#54595d" stroke-miterlimit="10" stroke-width="2"/>
      <line id="Line_12" data-name="Line 12" y1="77.957" transform="translate(135.114 109.433)" fill="#3f3d56" stroke="#54595d" stroke-miterlimit="10" stroke-width="2"/>
      <circle id="Ellipse_146" data-name="Ellipse 146" cx="5.415" cy="5.415" r="5.415" transform="translate(129.7 104.019)" fill="#54595d"/>
      <path id="Path_808" data-name="Path 808" d="M584.582,477.423s-.773-16.637-16.63-14.7" transform="translate(-449.468 -345.939)" fill="#54595d"/>
      <path id="Path_809" data-name="Path 809" d="M584.582,599.7s3.481-31.992-16.63-33.539" transform="translate(-449.468 -413.795)" fill="none" stroke="#54595d" stroke-miterlimit="10" stroke-width="2"/>
      <circle id="Ellipse_147" data-name="Ellipse 147" cx="5.415" cy="5.415" r="5.415" transform="translate(113.069 146.948)" fill="#54595d"/>
      <line id="Line_13" data-name="Line 13" x2="111.773" transform="translate(75.38 187.316)" fill="none" stroke="#54595d" stroke-miterlimit="10" stroke-width="2"/>
      <circle id="Ellipse_148" data-name="Ellipse 148" cx="11" cy="11" r="11" transform="translate(217 110)" fill="#edeff0"/>
      <ellipse id="Ellipse_149" data-name="Ellipse 149" cx="11" cy="10.5" rx="11" ry="10.5" transform="translate(43 42)" fill="#edeff0"/>
      <circle id="Ellipse_150" data-name="Ellipse 150" cx="11" cy="11" r="11" transform="translate(154)" fill="#edeff0"/>
    </g>
    <text id="Stats" transform="translate(97 631)" font-size="11" font-family="Apercu-Regular, Apercu"><tspan x="0" y="0">Stats</tspan></text>
    <g id="analytics" transform="translate(97 590.214)">
      <g id="Group_245" data-name="Group 245" transform="translate(0 25.817)">
        <g id="Group_244" data-name="Group 244">
          <path id="Path_704" data-name="Path 704" d="M26.379,490.667H.561a.561.561,0,1,0,0,1.122H26.379a.561.561,0,1,0,0-1.122Z" transform="translate(0 -490.667)" fill="#3596b2"/>
        </g>
      </g>
      <g id="Group_247" data-name="Group 247" transform="translate(1.122 19.082)">
        <g id="Group_246" data-name="Group 246">
          <path id="Path_705" data-name="Path 705" d="M25.262,362.667H21.894a.561.561,0,0,0-.561.561v6.735a.561.561,0,0,0,.561.561h3.367a.561.561,0,0,0,.561-.561v-6.735A.561.561,0,0,0,25.262,362.667ZM24.7,369.4H22.456v-5.613H24.7V369.4Z" transform="translate(-21.333 -362.667)" fill="#3596b2"/>
        </g>
      </g>
      <g id="Group_249" data-name="Group 249" transform="translate(7.857 13.47)">
        <g id="Group_248" data-name="Group 248">
          <path id="Path_706" data-name="Path 706" d="M153.262,256h-3.368a.561.561,0,0,0-.561.561v12.347a.561.561,0,0,0,.561.561h3.368a.561.561,0,0,0,.561-.561V256.561A.561.561,0,0,0,153.262,256Zm-.561,12.347h-2.245V257.122H152.7Z" transform="translate(-149.333 -256)" fill="#3596b2"/>
        </g>
      </g>
      <g id="Group_251" data-name="Group 251" transform="translate(14.592 15.715)">
        <g id="Group_250" data-name="Group 250">
          <path id="Path_707" data-name="Path 707" d="M281.262,298.667h-3.367a.561.561,0,0,0-.561.561v10.1a.561.561,0,0,0,.561.561h3.367a.561.561,0,0,0,.561-.561v-10.1A.561.561,0,0,0,281.262,298.667Zm-.561,10.1h-2.245v-8.98H280.7Z" transform="translate(-277.333 -298.667)" fill="#3596b2"/>
        </g>
      </g>
      <g id="Group_253" data-name="Group 253" transform="translate(21.327 8.98)">
        <g id="Group_252" data-name="Group 252">
          <path id="Path_708" data-name="Path 708" d="M409.262,170.667h-3.367a.561.561,0,0,0-.561.561v16.837a.561.561,0,0,0,.561.561h3.367a.561.561,0,0,0,.561-.561V171.228A.561.561,0,0,0,409.262,170.667ZM408.7,187.5h-2.245V171.789H408.7Z" transform="translate(-405.333 -170.667)" fill="#3596b2"/>
        </g>
      </g>
      <g id="Group_255" data-name="Group 255" transform="translate(1.122 10.102)">
        <g id="Group_254" data-name="Group 254">
          <path id="Path_709" data-name="Path 709" d="M23.578,192a2.245,2.245,0,1,0,2.245,2.245A2.247,2.247,0,0,0,23.578,192Zm0,3.367a1.122,1.122,0,1,1,1.122-1.122A1.124,1.124,0,0,1,23.578,195.367Z" transform="translate(-21.333 -192)" fill="#3596b2"/>
        </g>
      </g>
      <g id="Group_257" data-name="Group 257" transform="translate(7.857 4.49)">
        <g id="Group_256" data-name="Group 256">
          <path id="Path_710" data-name="Path 710" d="M151.578,85.333a2.245,2.245,0,1,0,2.245,2.245A2.247,2.247,0,0,0,151.578,85.333Zm0,3.367a1.122,1.122,0,1,1,1.122-1.122A1.124,1.124,0,0,1,151.578,88.7Z" transform="translate(-149.333 -85.333)" fill="#3596b2"/>
        </g>
      </g>
      <g id="Group_259" data-name="Group 259" transform="translate(14.592 6.735)">
        <g id="Group_258" data-name="Group 258">
          <path id="Path_711" data-name="Path 711" d="M279.578,128a2.245,2.245,0,1,0,2.245,2.245A2.247,2.247,0,0,0,279.578,128Zm0,3.367a1.122,1.122,0,1,1,1.122-1.122A1.124,1.124,0,0,1,279.578,131.367Z" transform="translate(-277.333 -128)" fill="#3596b2"/>
        </g>
      </g>
      <g id="Group_261" data-name="Group 261" transform="translate(21.327)">
        <g id="Group_260" data-name="Group 260">
          <path id="Path_712" data-name="Path 712" d="M407.578,0a2.245,2.245,0,1,0,2.245,2.245A2.247,2.247,0,0,0,407.578,0Zm0,3.367A1.122,1.122,0,1,1,408.7,2.245,1.124,1.124,0,0,1,407.578,3.367Z" transform="translate(-405.333)" fill="#3596b2"/>
        </g>
      </g>
      <g id="Group_263" data-name="Group 263" transform="translate(17.467 2.873)">
        <g id="Group_262" data-name="Group 262">
          <path id="Path_713" data-name="Path 713" d="M337.276,54.772a.562.562,0,0,0-.794,0l-4.355,4.355a.561.561,0,0,0,.794.794l4.355-4.355A.562.562,0,0,0,337.276,54.772Z" transform="translate(-331.963 -54.608)" fill="#3596b2"/>
        </g>
      </g>
      <g id="Group_265" data-name="Group 265" transform="translate(11.161 6.634)">
        <g id="Group_264" data-name="Group 264">
          <path id="Path_714" data-name="Path 714" d="M216.428,127.129l-3.605-1.028a.561.561,0,0,0-.308,1.08l3.605,1.028a.561.561,0,0,0,.308-1.08Z" transform="translate(-212.108 -126.078)" fill="#3596b2"/>
        </g>
      </g>
      <g id="Group_267" data-name="Group 267" transform="translate(3.995 7.223)">
        <g id="Group_266" data-name="Group 266">
          <path id="Path_715" data-name="Path 715" d="M81.166,137.485a.562.562,0,0,0-.788-.09l-4.232,3.374a.561.561,0,0,0,.35,1,.567.567,0,0,0,.349-.121l4.232-3.374A.561.561,0,0,0,81.166,137.485Z" transform="translate(-75.935 -137.273)" fill="#3596b2"/>
        </g>
      </g>
    </g>
    <g id="Group_303" data-name="Group 303" transform="translate(-82)">
      <g id="wheel" transform="translate(260 592)">
        <path id="Path_717" data-name="Path 717" d="M140.049,133.609a6.44,6.44,0,1,0,6.44,6.44A6.447,6.447,0,0,0,140.049,133.609Zm0,11.27a4.83,4.83,0,1,1,4.83-4.83A4.835,4.835,0,0,1,140.049,144.879Zm0,0" transform="translate(-126.579 -126.579)" fill="#3596b2"/>
        <path id="Path_718" data-name="Path 718" d="M26.306,10.4l-2.071-.45a11.269,11.269,0,0,0-.666-1.607l1.146-1.783a.805.805,0,0,0-.108-1L21.382,2.332a.805.805,0,0,0-1-.108L18.594,3.371A11.269,11.269,0,0,0,16.988,2.7L16.537.634A.8.8,0,0,0,15.751,0H11.189A.8.8,0,0,0,10.4.634L9.952,2.7a11.269,11.269,0,0,0-1.607.666L6.563,2.225a.805.805,0,0,0-1,.108L2.332,5.558a.805.805,0,0,0-.108,1L3.371,8.346A11.269,11.269,0,0,0,2.7,9.952L.634,10.4A.805.805,0,0,0,0,11.189v4.562a.805.805,0,0,0,.634.787l2.071.45a11.269,11.269,0,0,0,.666,1.607L2.225,20.377a.805.805,0,0,0,.108,1l3.226,3.226a.805.805,0,0,0,1,.108l1.783-1.146a11.269,11.269,0,0,0,1.607.666l.45,2.071a.8.8,0,0,0,.787.634h4.562a.8.8,0,0,0,.787-.634l.45-2.071a11.269,11.269,0,0,0,1.607-.666l1.783,1.146a.8.8,0,0,0,1-.108l3.226-3.226a.805.805,0,0,0,.108-1l-1.146-1.783a11.269,11.269,0,0,0,.666-1.607l2.071-.45a.805.805,0,0,0,.634-.787V11.189A.805.805,0,0,0,26.306,10.4Zm-.976,4.7-1.9.413a.805.805,0,0,0-.6.57,9.659,9.659,0,0,1-.892,2.151.8.8,0,0,0,.024.831L23.01,20.7,20.7,23.01l-1.635-1.051a.8.8,0,0,0-.831-.024,9.664,9.664,0,0,1-2.151.892.805.805,0,0,0-.57.6l-.413,1.9H11.838l-.413-1.9a.805.805,0,0,0-.57-.6A9.659,9.659,0,0,1,8.7,21.935a.805.805,0,0,0-.831.024L6.238,23.01,3.93,20.7l1.051-1.635a.8.8,0,0,0,.024-.831,9.669,9.669,0,0,1-.892-2.151.805.805,0,0,0-.6-.57L1.61,15.1V11.838l1.9-.413a.805.805,0,0,0,.6-.57A9.659,9.659,0,0,1,5,8.7a.8.8,0,0,0-.024-.831L3.93,6.238,6.238,3.93,7.873,4.981A.8.8,0,0,0,8.7,5a9.664,9.664,0,0,1,2.151-.892.805.805,0,0,0,.57-.6l.413-1.9H15.1l.413,1.9a.805.805,0,0,0,.57.6A9.659,9.659,0,0,1,18.236,5a.805.805,0,0,0,.831-.024L20.7,3.93,23.01,6.238,21.959,7.873a.8.8,0,0,0-.024.831,9.659,9.659,0,0,1,.892,2.151.805.805,0,0,0,.6.57l1.9.413Zm0,0" fill="#3596b2"/>
      </g>
      <text id="Settings" transform="translate(252 631)" fill="#54595d" font-size="11" font-family="Apercu-Regular, Apercu"><tspan x="0" y="0">Settings</tspan></text>
    </g>
    <g id="Group_435" data-name="Group 435">
      <g id="sydney-opera-house" transform="translate(21.659 578.036)">
        <g id="Group_237" data-name="Group 237" transform="translate(0 12.676)">
          <path id="Path_699" data-name="Path 699" d="M27.865,24.643l-2.394-2.182V15.228a.833.833,0,0,0-.833-.833H18.874a.833.833,0,0,0-.833.833v.464L15.15,13.057a1.447,1.447,0,0,0-1.958,0L.476,24.644a1.453,1.453,0,0,0,.979,2.528H3.486V38.78a.833.833,0,0,0,.833.833h6.97a.833.833,0,0,0,.833-.833V31.731h4.1V38.78a.833.833,0,0,0,.833.833h6.969a.833.833,0,0,0,.833-.833V27.171h2.031a1.453,1.453,0,0,0,.979-2.528Zm-3.844.861a.833.833,0,0,0-.833.833V37.946h-5.3V30.9a.834.834,0,0,0-.833-.833H11.289a.833.833,0,0,0-.833.833v7.049h-5.3V26.338a.833.833,0,0,0-.833-.833H2.006L14.171,14.42l4.142,3.775a.833.833,0,0,0,1.395-.616V16.062h4.1V22.83a.833.833,0,0,0,.272.616L26.335,25.5Z" transform="translate(0 -12.676)" fill="#3596b2"/>
        </g>
      </g>
      <text id="Home" transform="translate(22 631)" font-size="11" font-family="Apercu-Regular, Apercu"><tspan x="0" y="0">Home</tspan></text>
    </g>
    <rect id="Rectangle_1571" data-name="Rectangle 1571" width="50" height="52" rx="6" transform="translate(12 584)" fill="rgba(53,150,178,0.3)"/>
    <g transform="matrix(1, 0, 0, 1, 0, 0)" filter="url(#more)">
      <path id="more-2" data-name="more" d="M27.5,0A27.5,27.5,0,1,0,55,27.5,27.53,27.53,0,0,0,27.5,0ZM39.531,29.792h-9.74v9.74a2.292,2.292,0,1,1-4.583,0v-9.74h-9.74a2.292,2.292,0,0,1,0-4.583h9.74v-9.74a2.292,2.292,0,0,1,4.583,0v9.74h9.74a2.292,2.292,0,0,1,0,4.583Zm0,0" transform="translate(298 549)" fill="#3596b2"/>
    </g>
  </g>
</svg>
